<?xml version="1.0" encoding="utf-8"?>
<!-- Generator: Adobe Illustrator 24.3.0, SVG Export Plug-In . SVG Version: 6.00 Build 0)  -->
<svg version="1.1" id="Layer_1" xmlns="http://www.w3.org/2000/svg" xmlns:xlink="http://www.w3.org/1999/xlink" x="0px" y="0px"
	 viewBox="0 0 536 261" style="enable-background:new 0 0 536 261;" xml:space="preserve">
<style type="text/css">
	.st0{fill:#00BCE7;}
</style>
<g id="Group_7">
	<path id="Path_21" class="st0" d="M235.5,90.1h-13.3v70.4h42.4v-12.9h-29V90.1z"/>
	<path id="Path_22" class="st0" d="M292.7,108.4c-15.3,0-27,11.4-27,26.4s11.6,26.5,27,26.5s27-11.4,27-26.4
		S308.3,108.5,292.7,108.4 M292.7,149.4c-8.2,0-14-6.2-13.9-14.7s5.9-14.3,14-14.3s14,6,13.9,14.6S300.9,149.5,292.7,149.4"/>
	<path id="Path_23" class="st0" d="M363.1,112c-4.3-2.4-9-3.6-13.9-3.6c-15.3-0.1-27,11.4-27,26.4s11.7,26.5,27,26.5
		c4.9,0,9.7-1.2,14-3.6v5.7c0,8.6-5.8,14.5-14.1,14.5c-10.6,0-15.2-10.3-15.2-10.3l-9.7,5.9c0,0,5.6,16.3,25,16.3
		c15.4,0,27-11.4,27-26.4v-55h-13L363.1,112 M363.2,135.1c-0.1,8.5-5.9,14.4-14.1,14.3s-14-6.2-13.9-14.7s5.8-14.3,14-14.3
		s13.9,5.9,13.9,14.4V135.1"/>
	<path id="Path_24" class="st0" d="M419.6,112c-4.3-2.4-9-3.6-13.9-3.6c-15.3-0.1-27,11.4-27,26.4s11.6,26.5,27,26.5
		c4.9,0,9.7-1.2,14-3.6v5.7c0,8.6-5.9,14.5-14.1,14.5c-10.6,0-15.2-10.3-15.2-10.3l-9.7,5.9c0,0,5.6,16.3,25,16.3
		c15.4,0,27-11.3,27-26.4v-55h-13L419.6,112 M419.7,135.1c-0.1,8.5-5.9,14.4-14.1,14.3s-14-6.2-13.9-14.7s5.8-14.4,14-14.3
		s13.9,5.9,13.9,14.4L419.7,135.1"/>
	<rect id="Rectangle_11" x="437.9" y="108.4" class="st0" width="13.3" height="52.2"/>
	<path id="Path_25" class="st0" d="M444.6,103.3c3.7,0,6.7-3,6.7-6.7s-3-6.7-6.7-6.7c-3.7,0-6.7,3-6.7,6.7
		C437.9,100.4,440.9,103.3,444.6,103.3L444.6,103.3L444.6,103.3"/>
	<path id="Path_26" class="st0" d="M195.1,100.1c-2.5-1.3-5.1-2.4-7.8-3.4l-0.7-0.5c0,0-17.6-12.6-25.4-15.9s-21.3-10.4-35-10
		c-6.7,0.2-13.4,1.1-19.9,2.9c-2.8,0.7-4.6,1.4-1.6,2.9c1,0.5,5.4,3.1,10.6,6.1c7.7,4.4,17.4,9.7,21.6,10.7
		c6.3,1.5,12.7,2.2,19.1,2.1c9.7-0.2,14.4,3.9,15.3,5.4c-1.7-2.5-8.3-4.4-17.1-3.9c-8.5,0.5-15.3,0-19.2-1.2
		c-7.9-2.4-15.6-5.5-23.1-9c-1.9,0.6-3.9,1.3-5.7,2.1c-2.4,1-4.7,2.9-1.3,3.9c2.4,0.7,25.3,8.9,32,9.3c5.9,0.4,11.8,0.1,17.6-1
		c8.6-1.6,13.2,1.9,14.2,3.3c-2.9,4.1-4.3,9.1-4,14.2c-31.6-5.6-41.7-8.5-48.8-9.7c-12.5-2.2-28.3,8.4-30.3,21.5
		c-1.1,7.4,0.8,14.4,5.3,20.8c5,7.1,11.6,13.3,12.6,14.6c0.6,1.1,0.4,4.1,0.4,6c0,2.2,2.8,4.2,4.5,4.4c1,0.1,19.7,5.9,19.7,5.9
		l27.7,8.5c0,0,0.4-1.9,0.5-2.7c0.2-2.1-1.4-7.1-7.9-9c-9.6-2.9-11.4-3.4-13.5-4c-1.1-0.3-0.3-0.4,1.4-1.7c2.8-2.4,5-5.2,6.6-8.5
		c5.7-12-1.5-22.8-1.5-22.8c3.1,3.7,5.2,8.1,6.1,12.8c2.1,10.2-4.8,18.3-4.8,18.3l4.1,1.2c0,0,26.6-26.8,29.2-29.7
		c2.2-2.4,6-4,8-4.6c7.1-2.1,16-6,18.2-7.5s5-6.5,5.7-7.7c0.9-1.4,1.5-3.1,1.8-4.8c0.1-0.7-3.7-5.7-3.7-5.7S200.2,103.2,195.1,100.1
		"/>
	<path id="Path_27" class="st0" d="M117.5,182.8c-1.3,0.7-1.7,2.4-1,3.7c0.3,0.5,0.7,0.9,1.2,1.1c2,1.1,8.9-2.7,8.9-2.7l-6.9-2.2
		C119,182.4,118.3,182.5,117.5,182.8"/>
</g>
</svg>
