<?xml version="1.0" encoding="utf-8"?>
<!-- Generator: Adobe Illustrator 24.3.0, SVG Export Plug-In . SVG Version: 6.00 Build 0)  -->
<svg version="1.1" id="Layer_1" xmlns="http://www.w3.org/2000/svg" xmlns:xlink="http://www.w3.org/1999/xlink" x="0px" y="0px"
	 viewBox="0 0 187 187" style="enable-background:new 0 0 187 187;" xml:space="preserve">
<style type="text/css">
	.st0{fill:#05BCE7;}
</style>
<g id="Group_74">
	<path id="Path_100" class="st0" d="M140.6,64.1c-2.5-1.3-5.1-2.4-7.7-3.4l-0.7-0.5c0,0-17.6-12.5-25.3-15.8S85.7,34,72,34.4
		c-6.7,0.1-13.3,1.1-19.8,2.9c-2.8,0.7-4.6,1.4-1.6,2.9c1,0.5,5.3,3,10.6,6c7.6,4.4,17.3,9.6,21.5,10.6c6.2,1.5,12.6,2.2,19,2.1
		c9.6-0.2,14.3,3.9,15.2,5.4c-1.7-2.4-8.3-4.4-17-3.9c-8.4,0.5-15.2,0-19.1-1.2c-7.9-2.5-15.5-5.5-22.9-9c-1.9,0.6-3.8,1.3-5.7,2.1
		c-2.4,1-4.7,2.9-1.3,3.8c2.4,0.7,25.2,8.8,31.8,9.2c5.9,0.4,11.8,0.1,17.5-1c8.6-1.6,13.1,1.9,14.1,3.3c-2.9,4.1-4.3,9.1-4,14.1
		C79,76,68.9,73.2,61.8,71.9c-12.4-2.1-28.2,8.4-30.1,21.4c-1.1,7.4,0.8,14.3,5.3,20.7c5,7.1,11.5,13.2,12.5,14.5
		c0.6,1.1,0.4,4,0.5,6c0,2.2,2.8,4.2,4.4,4.3c1,0.1,19.6,5.9,19.6,5.9l27.6,8.5c0,0,0.4-1.9,0.5-2.7c0.2-2-1.3-7.1-7.8-8.9l-13.4-4
		c-1.1-0.3-0.3-0.3,1.4-1.7c2.7-2.3,5-5.2,6.6-8.4c5.6-12-1.5-22.6-1.5-22.6c3.1,3.7,5.2,8,6.1,12.7c2.1,10.1-4.8,18.2-4.8,18.2
		l4.1,1.2c0,0,26.5-26.7,29.1-29.6c2.2-2.4,6-4,7.9-4.6c6.3-1.9,12.4-4.4,18.2-7.4c2.2-1.4,5-6.4,5.7-7.7c0.9-1.4,1.5-3,1.8-4.7
		c0.1-0.7-3.7-5.7-3.7-5.7S145.6,67.1,140.6,64.1z"/>
	<path id="Path_101" class="st0" d="M63.4,145.6c-1.4,0.8-1.9,2.6-1.1,4c0.3,0.5,0.8,0.9,1.3,1.2c2.2,1.2,9.6-2.9,9.6-2.9l-7.5-2.3
		C65,145.2,64.1,145.2,63.4,145.6z"/>
</g>
</svg>
